# xmcd
#
# Track frame offsets:
#	150
#	11160
#	22368
#	33129
#	43684
#	61558
#	72371
#	84844
#	99584
#	112625
#	125884
#	136347
#
# Disc length: 2012 seconds
#
# Revision: 1
# Processed by: cddbd v1.5.2PL0 Copyright (c) Steve Scherf et al.
# Submitted via: audiograbber 1.83.01
#
DISCID=9807da0c
DTITLE=Reno Brandoni - Zingarom
DYEAR=2004
DGENRE=Blues
TTITLE0=Contastella
TTITLE1=Come Back Baby/Kindheart Woman
TTITLE2=Zingarom
TTITLE3=Il Vento e la follia
TTITLE4=The Reno is Wide
TTITLE5=Diamante
TTITLE6=Sportin' life blues
TTITLE7=Principessa
TTITLE8=Viceversa ti amo
TTITLE9=E' quel che è
TTITLE10=L'assassino di G.P.
TTITLE11=Spargi
EXTD=
EXTT0=
EXTT1=
EXTT2=
EXTT3=
EXTT4=
EXTT5=
EXTT6=
EXTT7=
EXTT8=
EXTT9=
EXTT10=
EXTT11=
PLAYORDER=
